        <svg width="60" height="60" viewBox="0 0 60 60" xmlns="http://www.w3.org/2000/svg" class="favorite-icon svelte-1v9stun"><path class="favorite-icon__star svelte-1v9stun" d="M19.337 44.944c.851.647 1.887.448 3.031-.393l7.444-5.465 7.445 5.465c1.145.84 2.181 1.04 3.033.393.832-.63 1.006-1.68.55-2.99l-2.941-8.742 7.508-5.386c1.144-.806 1.644-1.747 1.3-2.756-.337-.992-1.282-1.476-2.679-1.459l-9.201.07-2.8-8.804c-.43-1.342-1.16-2.083-2.215-2.083-1.044 0-1.775.741-2.212 2.083l-2.8 8.805-9.21-.071c-1.389-.017-2.327.467-2.67 1.45-.345 1.018.163 1.959 1.3 2.765l7.507 5.386-2.94 8.742c-.456 1.31-.283 2.36.55 2.99zm3.418-4.686c-.022-.03-.028-.051-.007-.123l2.575-7.008c.338-.969.296-1.407-.635-2.02l-6.197-4.162c-.053-.04-.075-.071-.064-.102.01-.03.042-.039.113-.039l7.46.262c1.03.026 1.439-.212 1.716-1.215l2.025-7.175c.02-.071.04-.095.071-.095.031 0 .051.024.073.095l2.026 7.175c.277 1.003.693 1.241 1.732 1.215l7.452-.262c.071 0 .103.009.113.04.01.03-.011.052-.064.101l-6.206 4.17c-.922.614-.973 1.043-.628 2.012l2.569 7.008c.02.072.015.094-.007.123-.022.029-.053 0-.105-.033l-5.873-4.615c-.827-.648-1.326-.648-2.162 0l-5.864 4.615c-.052.033-.083.062-.113.033z"></path></svg>